<?xml version="1.0" encoding="UTF-8"?>
<svg id="EVERMODE_LOGO_VERT" xmlns="http://www.w3.org/2000/svg" viewBox="0 0 130 130">
  <defs>
    <style>
      .cls-1 {
        fill: #d5cea3;
      }
    </style>
  </defs>
  <path class="cls-1" d="M110.63,113.84c-1.76.3-3.47.56-4.51.62-11.18.66-17.21-6.18-26.2-5.32-8.97.85-15.22,4.95-15.22,4.95,0,0-6.24-4.1-15.23-4.95-8.99-.85-15.02,5.99-26.2,5.32-1.02-.06-2.69-.31-4.41-.61v.58c11.82,3.37,20.58-4.09,30.39-3.11,10.63,1.07,15.45,5.94,15.45,5.94,0,0,4.89-4.83,15.86-5.94,9.73-.98,18.38,6.4,30.07,3.18v-.68Z"/>
  <path class="cls-1" d="M110.63,119.1c-1.56.39-3.34.73-4.56.86-12.46,1.29-18.06-3.33-27.8-2.27-3.17.35-7.08,1.64-10.94,6.68h-5.21c-3.87-5.08-7.8-6.33-10.98-6.68-9.75-1.07-15.47,3.88-27.8,2.27-1.19-.16-2.94-.49-4.47-.88v-.87c1.72.3,3.4.55,4.41.61,11.18.66,17.21-5.84,26.2-4.99,8.99.85,15.23,4.48,15.23,4.48,0,0,6.24-3.62,15.22-4.48,8.99-.85,15.02,5.65,26.2,4.99,1.03-.06,2.75-.32,4.51-.62v.91Z"/>
  <path class="cls-1" d="M110.63,109.53c-1.76.3-3.47.56-4.51.62-11.18.66-17.21-6.18-26.2-5.32-8.97.85-15.22,4.48-15.22,4.48,0,0-6.24-3.62-15.23-4.48-8.99-.85-15.02,5.99-26.2,5.32-1.02-.06-2.69-.31-4.41-.61v.58c11.82,3.37,20.58-4.09,30.39-3.11,10.63,1.07,15.45,5.94,15.45,5.94,0,0,4.89-4.83,15.86-5.94,9.73-.98,18.38,6.4,30.07,3.18v-.68Z"/>
  <path class="cls-1" d="M103.14,103.63c-4.63-.49-7.47-1-11.96-2.5-3.7-1.23-6.96-2.38-11.09-2.28-.72-.07-4.22-1.47-5.61-2.22-2.09-1.14-3-1.68-4.44-2.71-1.38-.98-2.22-3.15-2.6-4.38-.28-.92-.56-3.61-.82-7.02.26-1.71,1.21-2.58,2.06-3.22.52-.11,1.07-.11,1.59-.02.24.04.48.1.72.18.14.25.33.57.57.93.44.65,1.2,1.75,2.32,2.48,1.46.95,3.08.96,3.93.89-.19-.31-.46-.72-.8-1.18-.19-.26-.62-.84-1.18-1.42-.95-1-1.53-1.61-2.43-1.9-.33-.11-1.01-.26-1.95-.07-.38-.14-.78-.25-1.18-.31-.28-.04-.56-.06-.84-.06.81-.45,1.63-.65,2.54-.66,1.91-.02,4.05.38,5.94.67.1.13.2.27.3.41-.06.9-.02,2.78,1.16,4.56.4.6,1.15,1.72,2.63,2.26,1.2.44,2.28.28,2.79.16-.05-.93-.29-2.76-1.6-4.31-1.23-1.45-2.95-2.12-4.02-2.55-.18-.07-.35-.13-.5-.18-.06-.09-.12-.18-.18-.27,1.1.16,2.08.26,2.86.19.56-.05,1.1-.09,1.64-.15,0,0,0,0,.01,0,.38-.04.76-.08,1.15-.14.68,0,1.35.15,1.97.44-.08.22-.1.42-.11.48-.1,1.61,2.47,3.49,4.94,3.98,1.27.25,2.41.12,3.3-.1-.16-.71-.67-2.54-2.35-3.92-.29-.24-1.58-1.25-3.4-1.4-.57-.05-1.41-.1-1.97.38-.13-.04-.27-.07-.4-.1-.04-.02-.07-.03-.1-.02-.08-.02-.16-.03-.24-.05.67-.17,1.38-.4,2.16-.71.35-.07.71-.09,1.07-.09.64.22,1.45.25,2,.19,1.55-.16,2.65-1.17,3.11-1.6,1.04-.96,1.04-1.54,1.92-2.01.89-.48,1.85-.4,2.51-.27-.38-.45-1.31-1.42-2.83-1.83-2.35-.64-4.26.55-4.85.91-1.33.83-3.04,2.51-2.85,3.66-.06.09-.13.18-.2.27-1.92.75-4.29,1.31-6.96,1.14-.68-.04-1.23-.11-1.72-.2.2-.12.39-.25.57-.38.84.24,2.24.47,3.77-.04.6-.2,1.72-.57,2.52-1.7.65-.92.77-1.87.79-2.32-.8-.18-2.4-.4-4.02.35-1.51.7-2.48,2-3.09,2.81-.08.1-.14.19-.2.29-.41.26-.81.53-1.22.79-1.63-.43-2.68-1.03-5.99-1.23-1.17-.07-2.63.19-4.3.99.07-.16.15-.31.23-.46.21-.41.46-.88.88-1.12.29.12.7.23,1.16.18.88-.09,1.43-.69,1.8-1.1.94-1.03,1.15-2.25,1.2-2.83-.42.11-1.01.27-1.71.49-1.5.46-1.75.64-1.88.75-.26.21-.86.81-.93,2.27-.37.28-.63.69-.85,1.11-.04.07-.08.15-.12.23-.28.47-.85,1-1.41,1.35-.09-1.35-.17-2.74-.25-4.12.52-3.1,3.44-5.57,5.62-6.49.24-.1.49-.19.76-.27,1.06-.33,1.98-.42,2.7-.44.18.32.4.59.65.84.3.68.91,1.74,2.1,2.48,2.28,1.41,4.81.47,5.28.29.87-.33,1.51-.78,1.9-1.11-.42-.2-1.06-.53-1.77-1.03-.81-.57-.74-.66-1.13-.89-1.35-.8-2.6.11-5.73-.06-.14,0-.27-.02-.38-.03-.15-.16-.28-.32-.4-.51.16,0,.31,0,.44,0,0,0,2.19,0,4.59-.65,1.87-.51,3.3-1.29,4.17-1.84.46-.29.88-.59,1.27-.9.09-.06.54-.28.55-.29.23-.1.47-.15.72-.15.37.42.88.89,1.58,1.27,1.43.79,2.77.75,3.46.71,2.19-.1,3.74-1.16,4.38-1.65-.29-.39-.78-.94-1.52-1.41-1.14-.73-2.22-.85-2.86-.92-1.01-.11-1.95,0-2.78.21,1.28-.9,1.85-2.07,2.12-2.68.91-1.99.68-3.86.53-4.65-.48.08-1.19.27-1.95.71-1.17.68-1.78,1.59-2.13,2.13-1.28,1.96-1.38,4.11-1.34,5.21-2.5,1.93-4.68,2.67-6.3,2.97-.43.08-.78.19-1.28.3.23-.23.45-.46.68-.68.61-.11,1.47-.35,2.35-.94,1.43-.96,2.05-2.27,2.26-2.81.35-.88.43-1.66.44-2.16-.85.21-2.22.69-3.49,1.84-.64.58-1.71,1.54-1.97,3.09-.05.31-.06.59-.06.82-.3.31-.59.62-.92.9-.03.03-.07.06-.1.09-.58.08-1.34.14-2.42.16-1.58.03-3.06.06-4.89.82-.3.12-.59.26-.88.41.04-.04.08-.07.11-.11.32-.31.64-.6.95-.92,1.49-.11,2.12-.73,2.34-1,.12-.14.31-.41.81-2.04.24-.76.41-1.4.53-1.86-.63.06-1.95.28-3.07,1.3-.45.41-1.1,1-1.2,1.96-.06.59.11,1.09.26,1.41-.64.71-1.37,1.36-2.01,2.05-.72.78-2.18,1.88-2.24,1.91-.06.05-.6.5-.93.74-.17-3.4-.31-6.46-.39-8.39.49-1.76,1.83-2.98,2.3-3.57,1-.67,2.14-1.13,3.32-1.36.63.65,1.67,1.51,3.16,1.99.88.28,2.24.72,3.62.1.6-.27,1.01-.65,1.26-.93-.47-.58-1.51-1.69-3.2-2.26-.71-.24-2.03-.69-3.52-.16-.62.22-1.08.55-1.4.82-.81.15-1.6.41-2.35.77.44-.47.89-.88,1.34-1.22.68-.52,2.81-1.29,3.42-1.53.46-.19.87-.49,1.34-.63.76-.22,1.73-.27,2.73-.24.16.08.33.15.52.23.78.32,2.12.88,3.56.88,1.89,0,3.35-.95,4.08-1.51-.36-.17-.84-.38-1.42-.6-.32-.12-1.06-.39-1.91-.6-1.45-.35-2.33-.56-3.32-.29-.39.1-1.17.39-1.95,1.24-.11,0-.21-.01-.32-.01-.2,0-.39.01-.59.03,1.19-.85,2.28-1.92,3.33-3.21.15-.14.49-.33.49-.33.01,0,.09-.05.12-.07.01,0,.02-.01.03-.02,0,0,0,0,0,0,0,0,0,0,.01,0,.03,0,.06-.02.08-.02,0,0,.02,0,.03,0,0,0,.03,0,.03,0,.02,0,.04,0,.06,0,.51.29,1.2.58,2.05.7,2.23.3,3.92-.87,4.56-1.31,2.46-1.71,3.11-4.37,3.26-5.1-.34.39-.9.91-1.7,1.17-.84.27-1.32.05-2.14.06-1.59,0-2.78.81-4.1,1.69-.43.29-.95.68-1.51,1.21.83-1.14,1.18-2.16,1.33-2.75.44-1.7.23-3.33.1-4.31-.14-1.1-.33-1.5-.48-2.85-.13-1.22-.13-2.22-.11-2.87-.46.59-3.29,4.33-3.21,7.98.02.72.16,2.32.66,4.14.18.67.37,1.22.54,1.66,0,.02,0,.04-.02.07-.01.04-.02.08-.04.11,0,0,0,.01,0,.01,0,0,0,0,0,.01,0,.02-.11.26-.21.37-1.79,2.11-4.08,3.4-6.24,4.27-.04.01-.08.03-.13.05.69-.54,1.31-1.14,1.6-1.94.85-.48,1.28-1.05,1.47-1.35.55-.87.61-1.77.7-3.26.06-.87.01-1.65,0-2-.04-.62-.1-1.14-.15-1.53-.76.53-2.09,1.65-2.65,3.46-.43,1.38-.29,2.82-.21,3.66.05.55.13,1,.2,1.32-.22.37-.53.71-.85.99-.57.5-1.21.91-1.8,1.39-.48.22-.94.42-1.2.54-.45.21-.89.45-1.32.71,0,0,0,0,0-.01.24-.4.38-.82.45-1.28.02-.15.04-.3.06-.45,1.24-.58,1.61-1.32,1.72-1.63.06-.17.16-.48.1-2.18-.02-.79-.07-1.45-.1-1.92-.57.26-1.75.9-2.47,2.22-.29.53-.71,1.29-.49,2.23.15.64.53,1.08.79,1.32,0,.05-.01.1-.02.15-.06.46-.16.87-.39,1.27-.21.36-.44.7-.7,1.03-.64.51-1.61,1.82-2.29,2.76-.05-4.19-.38-30.72-.38-30.72h-.45s-.34,26.9-.38,30.81c-.68-.94-1.69-2.32-2.35-2.84-.26-.33-.49-.67-.7-1.03-.23-.4-.33-.82-.39-1.27,0-.05-.01-.1-.02-.15.26-.24.64-.68.79-1.32.22-.93-.2-1.7-.49-2.23-.72-1.32-1.89-1.96-2.47-2.22-.04.47-.08,1.13-.1,1.92-.05,1.7.04,2.01.1,2.18.12.31.49,1.05,1.72,1.63.02.15.04.3.06.45.07.46.21.88.45,1.28,0,0,0,0,0,.01-.42-.26-.86-.5-1.32-.71-.26-.12-.72-.33-1.2-.54-.59-.48-1.23-.88-1.8-1.39-.32-.29-.63-.62-.85-.99.07-.33.15-.78.2-1.32.08-.84.21-2.28-.21-3.66-.56-1.8-1.89-2.93-2.65-3.46-.06.39-.12.91-.15,1.53-.02.35-.06,1.13,0,2,.1,1.49.15,2.39.7,3.26.19.31.62.87,1.47,1.35.29.8.91,1.4,1.6,1.94-.05-.02-.09-.04-.13-.05-2.17-.87-4.45-2.17-6.24-4.27-.1-.11-.2-.35-.21-.37,0,0,0-.01,0-.01,0,0,0,0,0-.01-.01-.04-.03-.08-.04-.11,0-.02-.01-.04-.02-.07.16-.44.36-.99.54-1.66.5-1.82.65-3.41.66-4.14.08-3.65-2.75-7.39-3.21-7.98.02.65.03,1.65-.11,2.87-.15,1.35-.33,1.76-.48,2.85-.13.97-.34,2.6.1,4.31.15.59.49,1.61,1.33,2.75-.56-.53-1.09-.93-1.51-1.21-1.32-.89-2.51-1.69-4.1-1.69-.83,0-1.31.21-2.14-.06-.8-.26-1.36-.78-1.7-1.17.15.73.8,3.39,3.26,5.1.64.44,2.32,1.61,4.56,1.31.85-.11,1.53-.41,2.05-.7.02,0,.04,0,.06,0,0,0,.03,0,.03,0,0,0,.02,0,.03,0,.03,0,.06.01.08.02,0,0,0,0,.01,0,0,0,0,0,0,0,.01,0,.02.01.03.02.02.01.1.06.12.07,0,0,.34.19.49.33,1.05,1.29,2.15,2.36,3.33,3.21-.2-.02-.39-.03-.59-.03-.11,0-.21,0-.32.01-.79-.85-1.57-1.14-1.95-1.24-.99-.27-1.87-.06-3.32.29-.85.2-1.58.47-1.91.6-.58.22-1.06.43-1.42.6.73.57,2.2,1.51,4.08,1.51,1.44,0,2.78-.55,3.56-.88.19-.08.36-.16.52-.23,1-.03,1.98.02,2.73.24.47.14.88.45,1.34.63.61.24,2.73,1.02,3.42,1.53.45.34.9.75,1.34,1.22-.75-.36-1.54-.61-2.35-.77-.32-.28-.78-.6-1.4-.82-1.48-.53-2.81-.08-3.52.16-1.69.57-2.73,1.68-3.2,2.26.25.28.67.66,1.26.93,1.38.62,2.75.18,3.62-.1,1.49-.48,2.53-1.34,3.16-1.99,1.18.23,2.32.69,3.32,1.36.49.61,1.91,1.89,2.35,3.76-.08,1.95-.22,4.94-.39,8.24-.31-.23-.92-.72-.98-.78-.07-.03-1.52-1.13-2.24-1.91-.64-.69-1.37-1.34-2.01-2.05.16-.33.33-.82.26-1.41-.1-.96-.75-1.55-1.2-1.96-1.12-1.02-2.44-1.24-3.07-1.3.12.46.3,1.1.53,1.86.51,1.63.7,1.9.81,2.04.22.27.86.89,2.34,1,.31.31.63.61.95.92.04.04.08.07.11.11-.29-.15-.58-.29-.88-.41-1.83-.76-3.32-.79-4.89-.82-1.08-.02-1.84-.08-2.42-.16-.03-.03-.07-.06-.1-.09-.32-.28-.62-.6-.92-.9,0-.23,0-.5-.06-.82-.26-1.54-1.33-2.51-1.97-3.09-1.27-1.15-2.65-1.62-3.49-1.84.01.5.09,1.28.44,2.16.22.55.83,1.85,2.26,2.81.88.59,1.74.83,2.35.94.23.22.45.45.68.68-.5-.11-.85-.22-1.28-.3-1.62-.3-3.8-1.04-6.3-2.97.04-1.11-.07-3.25-1.34-5.21-.35-.54-.96-1.45-2.13-2.13-.76-.44-1.47-.62-1.95-.71-.15.79-.38,2.66.53,4.65.28.61.84,1.78,2.12,2.68-.82-.2-1.76-.31-2.78-.21-.64.07-1.72.19-2.86.92-.74.47-1.23,1.02-1.52,1.41.64.5,2.19,1.56,4.38,1.65.68.03,2.03.07,3.46-.71.7-.38,1.21-.85,1.58-1.27.25,0,.49.06.72.15,0,0,.45.23.55.29.38.3.81.6,1.27.9.88.55,2.3,1.33,4.17,1.84,2.4.65,4.59.65,4.59.65.13,0,.28,0,.44,0-.12.18-.26.35-.4.51-.12,0-.24.02-.38.03-3.13.17-4.38-.73-5.73.06-.39.23-.32.33-1.13.89-.71.5-1.34.82-1.77,1.03.39.33,1.03.78,1.9,1.11.46.17,2.99,1.12,5.28-.29,1.19-.74,1.8-1.8,2.1-2.48.25-.25.47-.52.65-.84.72.02,1.64.11,2.7.44.27.08.52.17.76.27,2.26.95,5.3,3.55,5.66,6.81-.07,1.29-.15,2.58-.23,3.83-.58-.34-1.17-.89-1.46-1.38-.04-.08-.08-.15-.12-.23-.22-.42-.47-.83-.85-1.11-.08-1.45-.68-2.06-.93-2.27-.13-.11-.38-.28-1.88-.75-.7-.22-1.29-.38-1.71-.49.06.58.26,1.8,1.2,2.83.37.41.92,1.01,1.8,1.1.46.05.87-.06,1.16-.18.41.24.66.71.88,1.12.08.15.16.31.23.46-1.68-.8-3.13-1.06-4.3-.99-3.32.2-4.37.81-5.99,1.23-.41-.26-.81-.53-1.22-.79-.06-.09-.13-.18-.2-.29-.61-.81-1.58-2.11-3.09-2.81-1.62-.75-3.22-.53-4.02-.35.02.46.14,1.41.79,2.32.8,1.13,1.92,1.5,2.52,1.7,1.53.51,2.93.28,3.77.04.18.13.37.26.57.38-.49.09-1.05.16-1.72.2-2.66.17-5.03-.4-6.96-1.14-.07-.09-.13-.18-.2-.27.19-1.14-1.53-2.83-2.85-3.66-.58-.36-2.5-1.55-4.85-.91-1.52.41-2.45,1.38-2.83,1.83.66-.13,1.63-.2,2.51.27.88.47.88,1.06,1.92,2.01.46.43,1.56,1.44,3.11,1.6.54.06,1.35.03,2-.19.36,0,.71.02,1.07.09.78.32,1.49.55,2.16.71-.08.01-.16.03-.24.05-.03,0-.07,0-.1.02-.13.03-.27.07-.4.1-.56-.48-1.4-.43-1.97-.38-1.82.15-3.11,1.16-3.4,1.4-1.68,1.38-2.19,3.21-2.35,3.92.88.22,2.03.36,3.3.1,2.46-.49,5.04-2.37,4.94-3.98,0-.06-.02-.25-.11-.48.61-.29,1.28-.45,1.97-.44.39.06.77.1,1.15.14,0,0,0,0,.01,0,.54.05,1.09.09,1.65.15.77.07,1.76-.03,2.86-.19-.06.09-.12.18-.18.27-.15.05-.32.11-.5.18-1.08.42-2.79,1.1-4.02,2.55-1.31,1.55-1.55,3.38-1.6,4.31.51.11,1.59.28,2.79-.16,1.48-.54,2.23-1.66,2.63-2.26,1.19-1.78,1.22-3.66,1.16-4.56.1-.14.2-.28.3-.41,1.88-.29,4.02-.69,5.94-.67.91,0,1.72.21,2.54.66-.28,0-.56.02-.84.06-.41.06-.8.17-1.18.31-.94-.2-1.62-.04-1.95.07-.9.29-1.48.9-2.43,1.9-.55.59-.99,1.17-1.18,1.42-.34.46-.6.87-.8,1.18.85.07,2.46.06,3.93-.89,1.12-.73,1.87-1.83,2.32-2.48.24-.36.43-.67.57-.93.24-.07.47-.13.72-.18.53-.09,1.07-.09,1.59.02.9.67,1.91,1.61,2.1,3.53-.25,3.26-.53,5.81-.8,6.7-.38,1.23-1.22,3.41-2.6,4.38-1.44,1.02-2.35,1.57-4.44,2.71-1.4.76-4.94,2.17-5.63,2.22-4.16-.11-7.42,1.04-11.14,2.27-4.5,1.5-7.33,2.02-11.96,2.5-4.63.49-7.48-.53-7.48-.53v2.78s1.88.8,6.53.53,9.24-1.21,13.81-2.5,7.01-2.12,13.14-1.41c6.13.71,12.4,5.73,12.4,5.73,0,0,6.26-5.02,12.4-5.73,6.13-.71,8.54.27,13.14,1.41s9.13,2.24,13.81,2.5,6.53-.53,6.53-.53v-2.78s-2.85,1.02-7.48.53Z"/>
  <path class="cls-1" d="M73.28,30.33c-.19,0-.38.05-.54.13.03-.1.04-.2.04-.31,0-.69-.56-1.24-1.24-1.24-.52,0-.96.31-1.14.76h-.74v.77h-2.97v-.77h-.82v-2.92h.77v-.7c.46-.18.79-.63.79-1.15,0-.69-.56-1.24-1.24-1.24-.11,0-.21.02-.31.04.08-.16.13-.35.13-.54,0-.69-.56-1.24-1.24-1.24s-1.24.56-1.24,1.24c0,.19.05.38.13.54-.1-.03-.2-.04-.31-.04-.69,0-1.24.56-1.24,1.24,0,.52.33.97.79,1.15v.7h.77v2.92h-.82v.77h-2.97v-.77h-.78c-.19-.45-.63-.76-1.15-.76-.69,0-1.24.56-1.24,1.24,0,.11.02.21.04.31-.16-.08-.35-.13-.54-.13-.69,0-1.24.56-1.24,1.24s.56,1.24,1.24,1.24c.19,0,.38-.05.54-.13-.03.1-.04.2-.04.31,0,.69.56,1.24,1.24,1.24.53,0,.99-.34,1.16-.81h.76v-.77h2.97v.77h.82v4.2l-1.36.92,1.36.92v3.9h-.77v.72c-.46.18-.79.63-.79,1.15,0,.69.56,1.24,1.24,1.24.11,0,.21-.02.31-.04-.08.16-.13.35-.13.54,0,.69.56,1.24,1.24,1.24s1.24-.56,1.24-1.24c0-.19-.05-.38-.13-.54.1.03.2.04.31.04.69,0,1.24-.56,1.24-1.24,0-.52-.33-.97-.79-1.15v-.72h-.77v-3.9l1.42-.92-1.42-.92v-4.2h.82v-.77h2.97v.77h.72c.18.47.63.81,1.16.81.69,0,1.24-.56,1.24-1.24,0-.11-.02-.21-.04-.31.16.08.35.13.54.13.69,0,1.24-.56,1.24-1.24s-.56-1.24-1.24-1.24Z"/>
  <path class="cls-1" d="M23.06,106.46v-53.86c0-5.7,1.1-11.23,3.26-16.43,2.09-5.03,5.09-9.55,8.92-13.43,7.86-7.98,18.34-12.38,29.5-12.38,23.14,0,41.97,18.95,41.97,42.24v53.85c-.76.02-1.62.02-2.63-.04-.92-.1-1.85-.2-2.77-.3v-54.79c0-18.39-16.52-35.34-36.57-35.34S28.61,32.92,28.61,51.31v54.74c-1.07.13-2.14.24-3.21.35-.87.05-1.65.06-2.33.05ZM21.5,104.45v-51.86c0-24.15,19.26-43.8,43.25-43.8s43.53,19.65,43.53,43.8v53.75c1.63-.17,2.34-.47,2.34-.47v-53.05c0-25.57-20.57-46.12-45.87-46.12S18.86,27.26,18.86,52.83v53.05s.8.34,2.64.5v-1.92Z"/>
</svg>