<?xml version="1.0" encoding="UTF-8"?>
<svg id="Layer_1" data-name="Layer 1" xmlns="http://www.w3.org/2000/svg" viewBox="0 0 97.43 46.71">
  <defs>
    <style>
      .cls-1 {
        fill: #fff;
      }
    </style>
  </defs>
  <path class="cls-1" d="M35.03,35.15c-7.73-3.15-11.66-3.49-15.82-3.85-4.1-.35-8.35-.73-16.38-3.95-.6.9-1.09,2.65-1.49,4.77,8.26,2.15,12.44,1.99,16.48,1.82,4.08-.17,8.3-.34,16.55,1.85,2.79.74,4.97,1.47,6.69,2.18-1.54-.85-3.49-1.78-6.03-2.82Z"/>
  <path class="cls-1" d="M34.05,37.98c-8.07-2.14-12.01-1.98-16.18-1.81-4.11.17-8.37.34-16.74-1.83-.27,1.65-.49,3.44-.66,5.17,8.17.97,12.22.27,16.12-.42,4.02-.7,8.18-1.43,16.65-.35,3.31.42,5.81.94,7.73,1.5-1.71-.72-3.94-1.48-6.92-2.27Z"/>
  <path class="cls-1" d="M16.8,41.31c-3.99.7-8.12,1.41-16.45.43-.17,1.89-.29,3.65-.35,4.94,8.36-.06,12.31-1.28,16.13-2.47,3.9-1.21,7.93-2.46,16.47-2.46,2.89,0,5.17.15,7.03.39-1.7-.43-3.83-.83-6.55-1.18-8.28-1.06-12.17-.38-16.28.34Z"/>
  <path class="cls-1" d="M79.61,33.97c4.04.17,8.23.33,16.53-1.83-.41-2.31-.9-4.1-1.48-4.78-8.08,3.25-12.33,3.62-16.45,3.98-4.16.36-8.09.7-15.82,3.85-2.54,1.03-4.5,1.97-6.03,2.82,1.73-.71,3.9-1.44,6.7-2.18,8.25-2.19,12.47-2.02,16.55-1.85Z"/>
  <path class="cls-1" d="M94.04,25.28L85.29,0c-6.34,2.52-9.71,2.81-12.98,3.09-3.34.29-6.5.56-12.71,3.09-8.61,3.51-9.08,5.7-9.33,6.87-.12.56-.26,1.2-1.04,1.61v28.73s.01-.01.02-.02c.04-.05.07-.12.1-.18.06-.16.11-.35.17-.62.39-1.83,1.04-4.9,12.41-9.52,7.9-3.22,12.11-3.58,16.18-3.94,3.99-.35,8.12-.7,15.93-3.82Z"/>
  <path class="cls-1" d="M80.84,39.12c3.91.68,7.96,1.38,16.14.41-.17-1.79-.38-3.57-.63-5.18-8.4,2.18-12.66,2.02-16.78,1.85-4.17-.17-8.11-.33-16.18,1.81-2.97.79-5.21,1.55-6.92,2.27,1.93-.56,4.42-1.08,7.73-1.5,8.47-1.09,12.63-.36,16.65.34Z"/>
  <path class="cls-1" d="M81.29,44.25c3.82,1.18,7.77,2.41,16.13,2.47-.07-1.51-.19-3.21-.34-4.95-8.33.99-12.47.27-16.46-.43-4.11-.72-8-1.4-16.28-.34-2.72.35-4.84.75-6.54,1.18,1.85-.24,4.14-.39,7.02-.39,8.54,0,12.57,1.25,16.47,2.46Z"/>
  <path class="cls-1" d="M47.91,42.53c.03.15.06.28.09.39V14.66c-.77-.41-.92-1.04-1.04-1.61-.25-1.18-.72-3.37-9.33-6.87-6.21-2.53-9.36-2.8-12.71-3.09-3.27-.28-6.65-.58-12.98-3.09L3.38,25.25c7.81,3.12,11.94,3.48,15.93,3.82,4.07.35,8.27.72,16.18,3.93,11.37,4.63,12.02,7.69,12.41,9.53Z"/>
</svg>