<?xml version="1.0" encoding="UTF-8"?>
<svg id="Layer_1" xmlns="http://www.w3.org/2000/svg" version="1.1" viewBox="0 0 1200 1200">
  <!-- Generator: Adobe Illustrator 29.0.0, SVG Export Plug-In . SVG Version: 2.1.0 Build 186)  -->
  <defs>
    <style>
      .st0 {
        fill-rule: evenodd;
      }

      .st0, .st1 {
        fill: #fff;
      }
    </style>
  </defs>
  <path class="st0" d="M59.5,1044.6s-25.6-80.4,16.8-214c0,0,1.5,96.5,19.9,101.8,0,0-11.1-100.7,17.2-133.6,0,0-10.7,73.5,0,91.1,10.7,17.2,3.8-175.3,62.8-243.8l128.6-150.4s-6.1,92.2,19.9,112.5c-1.9-219.3,94.5-292.1,248.4-404.6,0,0-42.5,70-21.1,112.9,30.2-137.4,66.2-139.3,174.5-198.3,0,0-45.9,88.8-30.6,119.4,0,0,63.5-149.3,91.5-155,0,0,205.5-94.2,265.6-81.5l-58.6,99.1,86.9-86.5-44,67.4,104.9-68.9s-136.3,115.2-165.7,134C510.1,440.6,358.9,521,77.9,1044.6h-18.4Z"/>
  <path class="st0" d="M133.8,1046.9h38.7c91.5-49,215.5-60.1,291.7-140.5,0,0-108.7,50.1-129.4,49.8,0,0-115.6,2.3-124,11.9-8.8,9.6-30.6-6.5,42.1-19.5,0,0,132.8-17.2,191.4-58.9l170.3-98.8c-39.4,14.2-220.1,22.6-226.2,27.6,166.9-29.5,322.7-40.6,410-199.4-93.4,15.7-296.6-6.9-335.7,5.7,0,0,15.3-14.5,102.2-16.8,0,0,148.5,7.3,254.5-45.6,0,0,137-64.3,156.5-97.6l-90,12.2c52.4-11.9,80-25.3,125.2-49l-104.1,16.5c81.5-16.1,197.5-75.8,202.5-171.5,0,0-101.8,36.4-178,18.4,54.7-4.6,210.9-21.1,219.7-94.9,0,0-111,31-147,29.1,0,0,93-16.5,156.9-55.9v-42.9s-78.1,32.9-90,33.3l89.2-58.2s7.7-24.9-18.4-46.7c-424.9,335.7-716.5,488.4-1008.2,991.8h0Z"/>
  <path class="st0" d="M71.8,1075.6C324.4,558.1,621.1,378.2,1088.8,86.5,653.2,393.5,355.8,591,98.5,1089.8l-26.8-14.2h0ZM89.8,1113.9l-5.7,24.1c-29.5,0-42.9,19.1-42.9,19.1,11.5-16.1-2.7-42.1-2.7-42.1l19.1-18,32.2,16.8ZM61.8,1120.4c3.1,0,5,2.3,5,5.4s-1.9,5-5,5-5-2.3-5-5,2.3-5.4,5-5.4Z"/>
  <path class="st0" d="M65,1077.7l37,19.6-7.2,13.7-37-19.6,7.2-13.7Z"/>
  <path class="st1" d="M38.9,1177.4c.4-.4,166.9-84.6,272.5-70.4,34.1,5.7,46.7,34.1,38.3,66.2-3.8,14.5,60.5,37.5,160.4-36.7,11.9-9.2,174.5-194.8,276.4-165l-3.1,11.1c-91.9-26.8-205.9,107.9-266.4,162.7-127.5,90.7-178,43.3-178.8,32.9-1.1-10,24.1-49.4-28.7-59.7-101.8-13.8-265.3,68.9-265.6,69.3l-5-10.3h0Z"/>
</svg>